<svg class="icon" viewBox="0 0 1024 1024" xmlns="http://www.w3.org/2000/svg" width="200" height="200"><defs><style/></defs><path d="M512 85.333C276.352 85.333 85.333 276.352 85.333 512S276.352 938.667 512 938.667 938.667 747.648 938.667 512 747.648 85.333 512 85.333zm159.061 577.515c-19.242 19.221-50.41 19.221-69.632 0l-81.216-81.216-81.216 81.216c-19.242 19.221-50.41 19.221-69.632 0-19.221-19.243-19.221-50.41 0-69.632L450.581 512l-81.237-81.216c-19.221-19.243-19.221-50.41 0-69.632 19.243-19.221 50.41-19.221 69.632 0l81.216 81.216 81.216-81.216c19.243-19.221 50.41-19.243 69.632 0 19.221 19.243 19.221 50.41 0 69.632L589.824 512l81.237 81.216c19.222 19.243 19.243 50.41 0 69.632z"/></svg>