<svg class="icon" viewBox="0 0 1024 1024" xmlns="http://www.w3.org/2000/svg" width="200" height="200"><defs><style/></defs><path d="M896 1024H128C57.6 1024 0 966.4 0 896V128C0 57.6 57.6 0 128 0h768c70.4 0 128 57.6 128 128v768c0 70.4-57.6 128-128 128zm64-832c0-70.4-57.6-128-128-128H192c-70.4 0-128 57.6-128 128v640c0 70.4 57.6 128 128 128h640c70.4 0 128-57.6 128-128V192zM384 768h448v64H384v-64zm0-192h448v64H384v-64zm0-192h448v64H384v-64zm0-192h448v64H384v-64zM192 768h64v64h-64v-64zm0-192h64v64h-64v-64zm0-192h64v64h-64v-64zm0-192h64v64h-64v-64z"/></svg>