<svg class="icon" viewBox="0 0 1024 1024" xmlns="http://www.w3.org/2000/svg" width="200" height="200"><defs><style/></defs><path d="M548.439 684.246a26.857 26.857 0 0 0 19.087-7.914L727.11 512.554l-159.597-163.79c-10.724-10.369-27.833-10.072-38.187.659-10.118 10.473-10.118 27.067 0 37.54L654.942 512.58 529.326 638.21c-10.514 10.579-10.461 27.674.131 38.201a27.022 27.022 0 0 0 18.982 7.835zM106.652 538.724h563.526c14.918 0 27.014-12.108 27.014-27.021 0-14.919-12.096-27.015-27.014-27.015H106.652c-14.932 0-27.016 12.096-27.016 27.015 0 14.912 12.084 27.021 27.016 27.021zm243.397 351.484V646.256l54.386-.08v211.372c0 18.045 14.642 32.673 32.687 32.673h420.169c18.045 0 32.674-14.628 32.674-32.673l-.832-690.813c0-18.045-14.629-32.674-32.674-32.674H437.136c-18.046 0-32.688 14.629-32.688 32.674v210.19H350.05V133.791c0-29.838 24.192-54.03 54.03-54.03h486.269c29.838 0 54.03 24.191 54.03 54.03v756.416c0 29.839-24.192 54.03-54.03 54.03h-486.27c-29.837 0-54.029-24.191-54.029-54.029z"/></svg>