<svg class="icon" viewBox="0 0 1024 1024" xmlns="http://www.w3.org/2000/svg" width="200" height="200"><defs><style/></defs><path d="M770.99 637.242c14.869 14.2 31.334 29.464 47.268 45.336 57.87 57.603 115.603 115.398 173.268 173.2 41.533 41.601 43.397 100.27 4.6 139.468-39.13 39.602-98.399 37.731-140.663-4.465-69.864-69.864-139.933-139.598-209.47-209.865-8.67-8.731-14.199-9.332-25.196-3.331C372.128 914.582 71.926 779.052 9.728 502.054-40.605 277.92 109.725 52.32 339.128 7.789c236.264-45.8 464.8 123.467 490.135 362.53 9.53 90.003-8.2 173.937-52.736 252.464-1.468 2.601-2.936 5.134-4.199 7.803-.47 1.051-.47 2.253-1.338 6.656zm-355.594 66.662c161-1.201 289.532-129.802 288.802-289.068-.73-159.136-131.666-287.799-291.403-286.536-157.935 1.338-285.075 131.94-284.208 291.875.806 154.862 132.267 284.93 286.809 283.73z"/><path d="M193.126 415.17c.198-132.068 113.937-226.27 222.406-221.463.267 5.065.8 10.267.8 15.4.136 15.265.067 30.536.067 45.603-103.997 8.997-156.07 79.599-161 160.467l-62.273-.006z"/></svg>