<svg class="icon" viewBox="0 0 1024 1024" xmlns="http://www.w3.org/2000/svg" width="200" height="200"><defs><style/></defs><path d="M510.552 92.805c-35.856 0-64.931 29.076-64.931 64.94v324.734c0 35.858 29.08 64.933 64.931 64.933 35.859 0 64.936-29.075 64.936-64.933V157.745c0-35.863-29.076-64.94-64.936-64.94zm0 0zm0 838.232c-229.405 0-416.069-186.665-416.069-416.078 0-128.222 57.808-247.327 158.556-326.858 21.139-16.601 51.764-13.042 68.422 8.069 16.657 21.116 13.069 51.765-8.069 68.422C236.201 325.497 191.93 416.757 191.93 514.96c0 175.688 142.943 318.666 318.651 318.666 175.688 0 318.636-142.972 318.636-318.666 0-98.225-44.297-189.513-121.571-250.418-21.139-16.657-24.754-47.284-8.096-68.422 16.689-21.116 47.283-24.727 68.394-8.097 100.847 79.499 158.688 198.664 158.688 326.935 0 229.413-186.665 416.077-416.078 416.077zm0 0z"/></svg>