<?xml version="1.0" standalone="no"?><!DOCTYPE svg PUBLIC "-//W3C//DTD SVG 1.1//EN" "http://www.w3.org/Graphics/SVG/1.1/DTD/svg11.dtd"><svg t="1528267098405" class="icon" style="" viewBox="0 0 1024 1024" version="1.1" xmlns="http://www.w3.org/2000/svg" p-id="1046" xmlns:xlink="http://www.w3.org/1999/xlink" width="200" height="200"><defs><style type="text/css"></style></defs><path d="M510.552 92.805c-35.856 0-64.931 29.076-64.931 64.94l0 324.734c0 35.858 29.08 64.933 64.931 64.933 35.859 0 64.936-29.075 64.936-64.933l0-324.734c0-35.863-29.076-64.94-64.936-64.94l0 0zM510.552 92.805zM510.552 931.037c-229.405 0-416.069-186.665-416.069-416.078 0-128.222 57.808-247.327 158.556-326.858 21.139-16.601 51.764-13.042 68.422 8.069 16.657 21.116 13.069 51.765-8.069 68.422-77.191 60.905-121.462 152.165-121.462 250.368 0 175.688 142.943 318.666 318.651 318.666 175.688 0 318.636-142.972 318.636-318.666 0-98.225-44.297-189.513-121.571-250.418-21.139-16.657-24.754-47.284-8.096-68.422 16.689-21.116 47.283-24.727 68.394-8.097 100.847 79.499 158.688 198.664 158.688 326.935 0 229.413-186.665 416.077-416.078 416.077l0 0zM510.552 931.037z" p-id="1047"></path></svg>