<?xml version="1.0" standalone="no"?><!DOCTYPE svg PUBLIC "-//W3C//DTD SVG 1.1//EN" "http://www.w3.org/Graphics/SVG/1.1/DTD/svg11.dtd"><svg t="1526968443363" class="icon" style="" viewBox="0 0 1024 1024" version="1.1" xmlns="http://www.w3.org/2000/svg" p-id="504" xmlns:xlink="http://www.w3.org/1999/xlink" width="200" height="200"><defs><style type="text/css"></style></defs><path d="M688.084656 102.941799H330.497354c-43.343915 0-81.269841 37.925926-81.269841 81.269841v433.439154c0 16.253968 10.835979 27.089947 27.089947 27.089947s27.089947-10.835979 27.089947-27.089947V270.899471h433.439154c16.253968 0 27.089947-10.835979 27.089947-27.089947V178.793651c5.417989-43.343915-32.507937-75.851852-75.851852-75.851852zM303.407407 178.793651c0-16.253968 10.835979-27.089947 27.089947-27.089947h357.587302c16.253968 0 27.089947 10.835979 27.089947 27.089947V216.719577H303.407407v-37.925926zM742.26455 335.915344c-16.253968 0-27.089947 10.835979-27.089947 27.089947V704.338624h-433.439153-5.41799H270.899471c-16.253968 0-27.089947 10.835979-27.089947 27.089947v119.195768c0 43.343915 37.925926 81.269841 81.269841 81.269841h357.587302c43.343915 0 81.269841-37.925926 81.269841-81.269841v-487.619048c5.417989-16.253968-5.417989-27.089947-21.671958-27.089947z m-54.179894 530.962963H330.497354c-16.253968 0-27.089947-10.835979-27.089947-27.089947v-92.10582h411.767196v92.10582c0 16.253968-10.835979 27.089947-27.089947 27.089947z" p-id="505"></path><path d="M574.306878 839.78836H444.275132c-16.253968 0-27.089947-10.835979-27.089947-27.089947s10.835979-27.089947 27.089947-27.089947h130.031746c16.253968 0 27.089947 10.835979 27.089947 27.089947s-10.835979 27.089947-27.089947 27.089947z" p-id="506"></path></svg>