<svg class="icon" viewBox="0 0 1024 1024" xmlns="http://www.w3.org/2000/svg" width="200" height="200"><defs><style/></defs><path d="M688.085 102.942H330.497c-43.344 0-81.27 37.926-81.27 81.27V617.65c0 16.254 10.836 27.09 27.09 27.09s27.09-10.836 27.09-27.09V270.899h433.44c16.254 0 27.09-10.836 27.09-27.09v-65.015c5.417-43.344-32.508-75.852-75.852-75.852zm-384.678 75.852c0-16.254 10.836-27.09 27.09-27.09h357.588c16.254 0 27.09 10.836 27.09 27.09v37.926H303.407v-37.926zm438.858 157.121c-16.254 0-27.09 10.836-27.09 27.09V704.34H270.899c-16.253 0-27.09 10.836-27.09 27.09v119.195c0 43.344 37.926 81.27 81.27 81.27h357.588c43.344 0 81.27-37.926 81.27-81.27V363.005c5.417-16.254-5.418-27.09-21.672-27.09zm-54.18 530.963H330.497c-16.254 0-27.09-10.836-27.09-27.09v-92.105h411.768v92.105c0 16.254-10.836 27.09-27.09 27.09z"/><path d="M574.307 839.788H444.275c-16.254 0-27.09-10.836-27.09-27.09s10.836-27.09 27.09-27.09h130.032c16.254 0 27.09 10.836 27.09 27.09s-10.836 27.09-27.09 27.09z"/></svg>