<svg class="icon" viewBox="0 0 1024 1024" xmlns="http://www.w3.org/2000/svg" width="200" height="200"><defs><style/></defs><path d="M511.566 901.211c-215.199 0-389.65-174.451-389.65-389.65 0-215.193 174.451-389.644 389.65-389.644 215.193 0 389.644 174.451 389.644 389.644 0 215.199-174.451 389.65-389.644 389.65m0-869.211C246.706 32 32 246.708 32 511.566c0 264.854 214.706 479.561 479.566 479.561 264.853 0 479.561-214.706 479.561-479.566C991.127 246.708 776.419 32 511.566 32z"/><path d="M380.797 305.28l343.765 209.252-343.765 209.246V305.28z"/></svg>