<?xml version="1.0" standalone="no"?><!DOCTYPE svg PUBLIC "-//W3C//DTD SVG 1.1//EN" "http://www.w3.org/Graphics/SVG/1.1/DTD/svg11.dtd"><svg t="1528269418775" class="icon" style="" viewBox="0 0 1024 1024" version="1.1" xmlns="http://www.w3.org/2000/svg" p-id="4172" xmlns:xlink="http://www.w3.org/1999/xlink" width="200" height="200"><defs><style type="text/css"></style></defs><path d="M511.566 901.211c-215.199 0-389.65-174.451-389.65-389.65 0-215.193 174.451-389.644 389.65-389.644 215.193 0 389.644 174.451 389.644 389.644 0 215.199-174.451 389.65-389.644 389.65M511.566 32c-264.86 0-479.566 214.708-479.566 479.566 0 264.854 214.706 479.561 479.566 479.561 264.853 0 479.561-214.706 479.561-479.566 0-264.853-214.708-479.561-479.561-479.561z" p-id="4173"></path><path d="M380.797 305.28l343.765 209.252-343.765 209.246v-418.498z" p-id="4174"></path></svg>