<svg class="icon" viewBox="0 0 1024 1024" xmlns="http://www.w3.org/2000/svg" width="200" height="200"><defs><style/></defs><path d="M510.909 2.183C228.999 2.183 0 231.182 0 513.09S229 1024 510.909 1024c281.905 0 510.904-229.007 510.904-510.909 0-281.909-228.999-510.908-510.904-510.908zm-18.243 947.92C265.492 940.98 83.024 757.601 73.9 531.334h145.972C229 678.22 346.69 795.001 492.666 804.12v145.983zm0-218.969c-105.836-9.115-190.68-93.96-199.804-199.8h147.797a71.633 71.633 0 0 0 52.003 52.007v147.793zm0-288.292c-25.544 6.387-44.71 26.459-52.003 52.003H292.862c9.123-105.836 93.968-190.681 199.804-199.804v147.8zm0-220.787c-146.89 9.127-263.667 126.818-272.794 272.794H73.9C83.02 267.67 266.403 85.203 492.666 76.083v145.972zm36.485 72.99a222.831 222.831 0 0 1 56.565 12.77c5.476-25.544 20.08-47.438 40.14-62.952a313.383 313.383 0 0 0-96.705-23.715V75.168c104.921 4.562 200.715 45.62 273.705 111.309l-52.007 52.91c10.034 6.387 20.08 14.603 27.377 24.637l51.089-51.088c70.242 73.896 114.947 173.345 119.516 281.913H802.856c-1.826-33.757-10.038-66.603-22.812-96.709-15.51 20.068-37.4 34.664-62.952 40.14 6.387 18.247 10.949 36.493 12.77 56.565H582.07c-2.74-9.127-6.39-16.429-11.867-23.723l53.832-53.828c-9.123-7.302-17.331-17.332-24.633-27.37l-57.472 57.48c-4.565-1.83-8.216-3.648-13.692-4.562V295.045h.914zm0 289.21c25.544-6.39 46.527-26.454 52.922-52.921h146.882c-9.119 105.84-93.964 190.685-199.8 199.8V584.256zm0 365.848V804.124c146.887-9.12 263.663-126.807 272.786-272.786h145.976C938.79 758.512 756.32 940.98 529.15 950.103zm163.315-545.58c-40.143 0-72.99-32.842-72.99-72.99 0-40.14 32.847-72.985 72.99-72.985 40.14 0 72.982 32.842 72.982 72.986 0 40.143-32.842 72.99-72.982 72.99z"/></svg>