<?xml version="1.0" standalone="no"?><!DOCTYPE svg PUBLIC "-//W3C//DTD SVG 1.1//EN" "http://www.w3.org/Graphics/SVG/1.1/DTD/svg11.dtd"><svg t="1531188593498" class="icon" style="" viewBox="0 0 1341 1024" version="1.1" xmlns="http://www.w3.org/2000/svg" p-id="1573" xmlns:xlink="http://www.w3.org/1999/xlink" width="167.625" height="128"><defs><style type="text/css"></style></defs><path d="M739.799503 543.132106V99.842802l-58.387663 0.534872-2.084728 186.653825h-74.534435v42.347866h74.818426l-0.283991 147.232475H538.797095v45.124107l139.707332 0.552701 0.822685 147.210825h-74.534435v43.4902h73.71175v164.167545H538.797095v52.786788H739.600836v-15.347011l0.198667-0.171923v-85.669963zM916.955527 512.659676c40.668113 0 73.853109-33.097125 73.853109-73.855656 0-32.462919-42.020575-99.914118-54.917361-119.751508l-18.935748-29.216754-18.938295 29.216754c-12.896786 19.926535-54.917361 87.288588-54.917361 119.751508 0 40.758531 33.097125 73.855656 73.855656 73.855656z m0-137.881127c15.69213 27.596856 28.765934 54.82949 28.765934 64.025471 0 15.870421-12.896786 28.76466-28.765934 28.76466-15.871694 0-28.768481-12.894239-28.768481-28.76466 0.001274-9.106835 13.078898-36.428614 28.768481-64.025471z m0 422.922137c40.668113 0 73.853109-33.090757 73.853109-73.850562 0-32.461646-42.020575-99.915392-54.917361-119.754054l-18.935748-29.212934-18.938295 29.212934c-12.896786 19.927808-54.917361 87.292409-54.917361 119.754054 0 40.758531 33.097125 73.850562 73.855656 73.850562z m0-137.877305c15.69213 27.594309 28.765934 54.828216 28.765934 64.02547 0 15.871694-12.896786 28.765934-28.765934 28.765934-15.871694 0-28.768481-12.894239-28.768481-28.765934 0.001274-9.108109 13.078898-36.431161 28.768481-64.02547z m0 0" p-id="1574"></path></svg>