<?xml version="1.0" standalone="no"?><!DOCTYPE svg PUBLIC "-//W3C//DTD SVG 1.1//EN" "http://www.w3.org/Graphics/SVG/1.1/DTD/svg11.dtd"><svg t="1531189351109" class="icon" style="" viewBox="-200 -200 1500 1500" version="1.1" xmlns="http://www.w3.org/2000/svg" p-id="23867" xmlns:xlink="http://www.w3.org/1999/xlink" width="20" height="20"><defs><style type="text/css"></style></defs><path d="M0 1024l204.8-614.4h245.76v450.56a81.92 81.92 0 0 0 163.84 0h81.92a20.48 20.48 0 0 0 0-40.96h-81.92v-81.92h81.92a20.48 20.48 0 1 0 0-40.96h-81.92v-81.92h81.92a20.48 20.48 0 1 0 0-40.96h-81.92v-81.92h81.92a20.48 20.48 0 0 0 0-40.96h-81.92v-40.96h245.76l204.8 614.4H0z m204.8-132.75136a51.2 51.2 0 0 0 102.4 0c0-28.07808-51.2-113.0496-51.2-113.0496s-51.2 84.95104-51.2 113.0496zM337.92 491.52S286.72 576.47104 286.72 604.5696a51.2 51.2 0 0 0 102.4 0c0-28.13952-51.2-113.0496-51.2-113.0496z m491.52 102.4S778.24 678.87104 778.24 706.9696a51.2 51.2 0 0 0 102.4 0c0-28.13952-51.2-113.0496-51.2-113.0496zM696.32 327.68a20.48 20.48 0 0 1 0 40.96h-122.88v491.52a40.96 40.96 0 0 1-81.92 0V40.96a40.96 40.96 0 0 1 81.92 0v163.84h122.88a20.48 20.48 0 0 1 0 40.96h-122.88v81.92h122.88z" fill="" p-id="23868"></path></svg>
