<svg class="icon" viewBox="0 0 1025 1024" xmlns="http://www.w3.org/2000/svg" width="200.195" height="200"><defs><style/></defs><path d="M1021.453 443.83c-2.943-38.197-10.045-41.652-47.793-38.645-41.78 3.327-77.096-17.466-91.492-53.87-14.779-37.237-4.094-75.625 28.472-102.305 21.945-17.978 24.632-32.566 4.734-53.615-29.943-31.67-61.165-62.253-93.73-91.172-25.273-22.393-37.045-19.513-58.414 7.422-26.104 32.886-67.883 42.675-105.823 24.952-35.573-16.634-52.272-47.025-49.52-90.148 1.855-29.558-6.847-39.923-36.341-42.162-23.033-1.792-46.066-3.007-67.691-4.415-22.713 2.495-43.89 4.35-64.876 7.166-29.367 3.903-35.7 12.476-33.142 42.547 3.903 45.617-15.099 79.91-52.975 95.586-36.725 15.227-74.729 4.286-103.584-29.751-17.082-20.154-31.99-23.097-50.864-5.246-31.734 29.814-62.892 60.525-91.811 93.154-24.696 27.832-21.945 37.3 6.59 61.101 27.127 22.65 38.9 51.632 31.35 86.693-7.742 35.637-30.327 58.542-65.643 66.795-12.988 3.007-27.256 1.088-40.884.96-18.554-.192-30.262 8.254-32.694 26.424-6.717 50.416-6.973 100.896 2.176 151.12 3.583 19.834 14.267 27.512 34.293 26.296 10.557-.64 21.241-3.135 31.606-2.11 36.98 3.646 66.028 28.214 76.008 62.827 9.981 34.422-1.855 69.547-31.542 93.411-24.44 19.642-27.127 33.27-5.886 55.855 29.431 31.286 59.95 61.74 92.195 90.084 27.448 24.12 37.877 21.305 60.781-7.934 31.415-40.18 87.717-45.554 126.233-12.604 25.848 22.137 32.758 50.096 29.367 82.598-2.495 23.993 6.334 37.812 27.383 38.26 47.281.96 94.69 1.152 141.844-1.663 30.71-1.856 36.788-12.796 33.333-43.763-5.054-44.913 13.82-80.166 51.504-96.161 38.068-16.123 76.648-5.183 104.864 29.75 17.274 21.37 32.437 24.505 52.015 5.822 32.438-30.902 63.98-62.956 93.731-96.417 21.625-24.313 18.554-37.429-7.486-57.07-21.753-16.38-34.037-38.133-35.573-65.196-3.199-55.343 41.907-97.314 97.954-91.748 28.599 2.816 42.61-5.31 43.25-30.262 1.088-44.146 1.472-88.548-1.919-132.567zM513.388 735.001C390.418 733.66 291.76 633.594 293.36 511.84c1.6-120.154 100.769-218.94 219.26-218.428 122.458.512 223.482 101.217 222.203 221.691-1.216 122.074-101.153 221.243-221.435 219.9z"/></svg>