<svg class="icon" viewBox="0 0 1024 1024" xmlns="http://www.w3.org/2000/svg" width="200" height="200"><defs><style/></defs><path d="M669.58 534.548L446.152 664.865c-3.657 1.812-7.616 2.684-11.576 2.684-4.73 0-9.36-1.275-13.522-3.757-7.583-4.564-12.18-12.75-12.18-21.474V381.716a25.127 25.127 0 0 1 12.18-21.508c7.617-4.597 17.146-5.033 25.098-1.04l223.426 130.284c8.657 4.295 14.159 12.985 14.159 22.548s-5.503 18.253-14.159 22.548z"/><path d="M924.242 99.707h-34.357v68.716H786.811V99.707H237.086v68.716H134.014V99.707H99.655c-18.923 0-34.357 15.433-34.357 34.357v755.872c0 18.923 15.434 34.357 34.357 34.357h34.359v-34.357h103.072v34.357h549.725v-34.357h103.074v34.357h34.357c18.924 0 34.358-15.434 34.358-34.357V134.064c0-18.924-15.435-34.357-34.358-34.357zM237.086 786.862H134.014V683.79h103.072v103.073zm0-206.147H134.014V477.641h103.072v103.074zm0-206.146H134.014V271.495h103.072V374.57zm481.01 481.008H305.801V168.423h412.293v687.154zm171.789-68.715H786.811V683.79h103.074v103.073zm0-206.147H786.811V477.641h103.074v103.074zm0-206.146H786.811V271.495h103.074V374.57z"/></svg>