<svg class="icon" viewBox="0 0 1024 1024" xmlns="http://www.w3.org/2000/svg" width="200" height="200"><defs><style/></defs><path d="M224.192 557.12a27.072 27.072 0 0 1-12.16-2.56 32.128 32.128 0 0 1-10.56-6.72 31.904 31.904 0 0 1 0-45.44 32.115 32.115 0 0 1 10.56-6.72 29.312 29.312 0 0 1 24.32 0 37.271 37.271 0 0 1 10.56 6.72 32.032 32.032 0 0 1 0 45.44 37.28 37.28 0 0 1-10.56 6.72 27.072 27.072 0 0 1-12.16 2.56zm32-128h-32a32 32 0 0 1 0-64h32a32 32 0 0 1 0 64zm32-128h-64a32 32 0 0 1 0-64h64a32 32 0 0 1 0 64zm-64 384a32.32 32.32 0 0 1-12.16-2.56 32.128 32.128 0 0 1-10.56-6.72 32 32 0 1 1 45.44 0 37.28 37.28 0 0 1-10.56 6.72c-3.84 1.632-8 2.496-12.16 2.56zm32 128h-32a32 32 0 0 1 0-64h32a32 32 0 0 1 0 64zm544-256h-6.4l-5.76-1.92a24.256 24.256 0 0 1-5.76-2.88l-4.8-3.84a32 32 0 1 1 45.44 0l-4.8 3.84a24.256 24.256 0 0 1-5.76 2.88 20.416 20.416 0 0 1-6.08 1.92h-6.08zm0-128h-32a32 32 0 0 1 0-64h32a32 32 0 0 1 0 64zm0-128h-64a32 32 0 0 1 0-64h64a32 32 0 0 1 0 64zm0 384a33.6 33.6 0 0 1-22.72-9.28 37.28 37.28 0 0 1-6.72-10.56 26.656 26.656 0 0 1-2.56-12.16 32 32 0 0 1 64 0 32.32 32.32 0 0 1-2.56 12.16 37.28 37.28 0 0 1-6.72 10.56 33.6 33.6 0 0 1-22.72 9.28zm0 128h-32a32 32 0 0 1 0-64h32a32 32 0 0 1 0 64zm-288-114.88a32 32 0 0 1 0-64c17.664 0 32-14.336 32-32a32 32 0 0 1 64 0 96 96 0 0 1-96 96zm-.64-390.72c32 40.96 74.56 94.08 109.12 138.56l2.24 3.2c75.2 96 55.04 198.08 4.48 250.56a158.08 158.08 0 0 1-229.44 0c-72-74.88-49.6-179.84 4.8-250.88l23.68-32c28.16-36.8 58.88-77.44 85.12-110.4v.96zm0-83.2a32 32 0 0 0-24.96 11.84c-37.44 44.48-92.8 118.08-134.4 172.8-81.28 106.56-88.32 242.24 0 334.08a222.08 222.08 0 0 0 321.6 0c88.32-91.84 78.72-232.64 0-334.08-43.84-56.32-100.16-128-137.28-173.12a32 32 0 0 0-24.96-11.84v.32z"/></svg>